<mxfile host="app.diagrams.net" agent="Mozilla/5.0 (Windows NT 10.0; Win64; x64) AppleWebKit/537.36 (KHTML, like Gecko) Chrome/130.0.0.0 Safari/537.36" version="24.8.3">
  <diagram name="Page-1" id="zQgdx6gdwZZkz5qt_Ua5">
    <mxGraphModel dx="1602" dy="268" grid="0" gridSize="10" guides="1" tooltips="1" connect="1" arrows="1" fold="1" page="1" pageScale="1" pageWidth="1100" pageHeight="850" background="#FFFFFF" math="0" shadow="0">
      <root>
        <mxCell id="0" />
        <mxCell id="1" parent="0" />
        <mxCell id="c5CrnKEYV5SDfYjA_wCa-15" value="" style="rounded=0;whiteSpace=wrap;html=1;" parent="1" vertex="1">
          <mxGeometry x="-961" y="284" width="563" height="210" as="geometry" />
        </mxCell>
        <mxCell id="afm0MhG2RPLh9kl4LAHP-32" style="rounded=0;orthogonalLoop=1;jettySize=auto;html=1;exitX=0.5;exitY=0.5;exitDx=0;exitDy=0;exitPerimeter=0;entryX=0;entryY=0.5;entryDx=0;entryDy=0;endArrow=none;endFill=0;" parent="1" source="afm0MhG2RPLh9kl4LAHP-1" target="afm0MhG2RPLh9kl4LAHP-31" edge="1">
          <mxGeometry relative="1" as="geometry" />
        </mxCell>
        <mxCell id="afm0MhG2RPLh9kl4LAHP-35" style="edgeStyle=orthogonalEdgeStyle;rounded=0;orthogonalLoop=1;jettySize=auto;html=1;exitX=0.5;exitY=0.5;exitDx=0;exitDy=0;exitPerimeter=0;entryX=0.5;entryY=0;entryDx=0;entryDy=0;" parent="1" source="afm0MhG2RPLh9kl4LAHP-1" target="afm0MhG2RPLh9kl4LAHP-9" edge="1">
          <mxGeometry relative="1" as="geometry" />
        </mxCell>
        <mxCell id="afm0MhG2RPLh9kl4LAHP-1" value="General&lt;div&gt;Practitioner&lt;/div&gt;" style="shape=umlActor;verticalLabelPosition=bottom;verticalAlign=top;html=1;outlineConnect=0;" parent="1" vertex="1">
          <mxGeometry x="-1053" y="248" width="30" height="60" as="geometry" />
        </mxCell>
        <mxCell id="afm0MhG2RPLh9kl4LAHP-5" value="Patient" style="shape=umlActor;verticalLabelPosition=bottom;verticalAlign=top;html=1;outlineConnect=0;" parent="1" vertex="1">
          <mxGeometry x="-146" y="514" width="30" height="60" as="geometry" />
        </mxCell>
        <mxCell id="afm0MhG2RPLh9kl4LAHP-15" style="edgeStyle=orthogonalEdgeStyle;rounded=0;orthogonalLoop=1;jettySize=auto;html=1;exitX=1;exitY=0.5;exitDx=0;exitDy=0;entryX=0;entryY=0.5;entryDx=0;entryDy=0;endArrow=none;endFill=0;" parent="1" source="afm0MhG2RPLh9kl4LAHP-7" target="afm0MhG2RPLh9kl4LAHP-8" edge="1">
          <mxGeometry relative="1" as="geometry" />
        </mxCell>
        <mxCell id="afm0MhG2RPLh9kl4LAHP-7" value="Sees Patients" style="ellipse;whiteSpace=wrap;html=1;" parent="1" vertex="1">
          <mxGeometry x="-726" y="354" width="120" height="80" as="geometry" />
        </mxCell>
        <mxCell id="afm0MhG2RPLh9kl4LAHP-8" value="Diagnose Patients" style="ellipse;whiteSpace=wrap;html=1;" parent="1" vertex="1">
          <mxGeometry x="-556" y="354" width="120" height="80" as="geometry" />
        </mxCell>
        <mxCell id="afm0MhG2RPLh9kl4LAHP-19" style="edgeStyle=orthogonalEdgeStyle;rounded=0;orthogonalLoop=1;jettySize=auto;html=1;exitX=1;exitY=0.5;exitDx=0;exitDy=0;" parent="1" source="afm0MhG2RPLh9kl4LAHP-9" target="afm0MhG2RPLh9kl4LAHP-5" edge="1">
          <mxGeometry relative="1" as="geometry" />
        </mxCell>
        <mxCell id="afm0MhG2RPLh9kl4LAHP-9" value="Can override the appointments and send the patient directly to ER" style="ellipse;whiteSpace=wrap;html=1;" parent="1" vertex="1">
          <mxGeometry x="-1083" y="514" width="130" height="90" as="geometry" />
        </mxCell>
        <mxCell id="afm0MhG2RPLh9kl4LAHP-33" style="edgeStyle=orthogonalEdgeStyle;rounded=0;orthogonalLoop=1;jettySize=auto;html=1;exitX=1;exitY=0.5;exitDx=0;exitDy=0;entryX=0;entryY=0.5;entryDx=0;entryDy=0;startArrow=none;startFill=0;endArrow=none;endFill=0;" parent="1" source="afm0MhG2RPLh9kl4LAHP-31" target="afm0MhG2RPLh9kl4LAHP-7" edge="1">
          <mxGeometry relative="1" as="geometry" />
        </mxCell>
        <mxCell id="afm0MhG2RPLh9kl4LAHP-31" value="&lt;div&gt;&lt;br&gt;&lt;/div&gt;&lt;div&gt;Approves patient appointments being set up from Mister Ed&lt;/div&gt;" style="ellipse;whiteSpace=wrap;html=1;" parent="1" vertex="1">
          <mxGeometry x="-936" y="349" width="140" height="90" as="geometry" />
        </mxCell>
        <mxCell id="c5CrnKEYV5SDfYjA_wCa-7" value="" style="rounded=0;orthogonalLoop=1;jettySize=auto;html=1;endArrow=none;endFill=0;entryX=0.5;entryY=0.5;entryDx=0;entryDy=0;entryPerimeter=0;" parent="1" source="c5CrnKEYV5SDfYjA_wCa-3" target="afm0MhG2RPLh9kl4LAHP-1" edge="1">
          <mxGeometry relative="1" as="geometry" />
        </mxCell>
        <mxCell id="c5CrnKEYV5SDfYjA_wCa-3" value="Sets up patient appointments for General Practitioner" style="ellipse;whiteSpace=wrap;html=1;" parent="1" vertex="1">
          <mxGeometry x="-875" y="189" width="120" height="80" as="geometry" />
        </mxCell>
        <mxCell id="c5CrnKEYV5SDfYjA_wCa-10" style="edgeStyle=orthogonalEdgeStyle;rounded=0;orthogonalLoop=1;jettySize=auto;html=1;exitX=0.5;exitY=0.5;exitDx=0;exitDy=0;exitPerimeter=0;entryX=1;entryY=0.5;entryDx=0;entryDy=0;endArrow=none;endFill=0;" parent="1" source="c5CrnKEYV5SDfYjA_wCa-5" target="c5CrnKEYV5SDfYjA_wCa-3" edge="1">
          <mxGeometry relative="1" as="geometry" />
        </mxCell>
        <mxCell id="c5CrnKEYV5SDfYjA_wCa-5" value="System (Mr. Ed)" style="shape=umlActor;verticalLabelPosition=bottom;verticalAlign=top;html=1;outlineConnect=0;" parent="1" vertex="1">
          <mxGeometry x="-525" y="199" width="30" height="60" as="geometry" />
        </mxCell>
        <mxCell id="c5CrnKEYV5SDfYjA_wCa-14" value="General Practitioner Office" style="text;html=1;align=center;verticalAlign=middle;whiteSpace=wrap;rounded=0;" parent="1" vertex="1">
          <mxGeometry x="-961" y="284" width="175" height="30" as="geometry" />
        </mxCell>
      </root>
    </mxGraphModel>
  </diagram>
</mxfile>
